<svg width="117" height="83" fill="none" xmlns="http://www.w3.org/2000/svg"><path d="M109.72 40.4l-7.6-8.3a3 3 0 00-2.2-.98h-8.78c-1.7 0-3.09 1.49-3.09 3.32v14.18c0 1.83 1.39 3.32 3.09 3.32h16.38c1.7 0 3.09-1.49 3.09-3.32v-5.88c0-.88-.32-1.71-.9-2.34zm-2.42 7.98H91.36v-13.7h8.47l7.47 8.16v5.54zM74.06 50.1l-.01-.06-.03-.16-.01-.05a1.85 1.85 0 00-.15-.4l-.03-.03a1.84 1.84 0 00-.23-.34h-.01a1.7 1.7 0 00-.15-.14l-.04-.04a1.69 1.69 0 00-.13-.1l-.02-.01-7.73-4.81c-.8-.5-1.8-.2-2.26.65-.46.85-.18 1.94.6 2.43l2.4 1.5H12.12c-.92 0-1.66.79-1.66 1.77 0 .99.74 1.78 1.66 1.78h54.12l-2.38 1.5a1.86 1.86 0 00-.6 2.43c.3.57.85.89 1.42.89.28 0 .57-.08.83-.24l7.73-4.81.02-.02.13-.1c.02 0 .03-.02.04-.03l.15-.14a1.74 1.74 0 00.24-.34l.03-.04c.06-.12.11-.25.15-.4l.01-.04.03-.17v-.05a1.92 1.92 0 000-.43zM58.83 0H5.51C2.7 0 .45 2.45.45 5.46v39.13c0 .99.74 1.78 1.65 1.78.91 0 1.65-.8 1.65-1.78V5.46c0-1.05.79-1.9 1.76-1.9h53.32c.91 0 1.65-.8 1.65-1.78S59.74 0 58.83 0z" fill="#A4341C"/><path d="M115.08 36.65l-9.88-10.79a4.97 4.97 0 00-3.64-1.64H85.4V5.46C85.4 2.45 83.13 0 80.34 0h-9.88c-.9 0-1.65.8-1.65 1.78 0 .99.74 1.78 1.65 1.78h9.88c.97 0 1.76.85 1.76 1.9v58.11H35.4l-.05-.06-.1-.14a11.82 11.82 0 00-.56-.75l-.1-.13a11.67 11.67 0 00-1.14-1.17l-.2-.16c-.24-.21-.5-.42-.76-.6l-.1-.07a11.06 11.06 0 00-3.17-1.5l-.24-.07a10.4 10.4 0 00-.98-.2l-.15-.02a10.07 10.07 0 00-1.37-.1h-.07a10.36 10.36 0 00-4.16.87l-.2.09c-.6.27-1.17.6-1.72 1l-.06.04a11.25 11.25 0 00-2.02 1.88l-.13.15a11.22 11.22 0 00-.67.9l-.03.04H5.51c-.97 0-1.76-.85-1.76-1.9v-4.6c0-.99-.74-1.79-1.65-1.79-.91 0-1.65.8-1.65 1.79v4.6c0 3.02 2.27 5.46 5.06 5.46h.45v1.9c0 2.41 1.81 4.37 4.05 4.37h5.67a12.1 12.1 0 002.91 5.54 10.6 10.6 0 007.82 3.49 10.6 10.6 0 007.81-3.5 12.11 12.11 0 002.9-5.53H87.9a12.11 12.11 0 002.9 5.54 10.6 10.6 0 007.82 3.49 10.6 10.6 0 007.82-3.5 12.12 12.12 0 002.9-5.53h.94c3.4 0 6.16-2.98 6.16-6.64V66c.07-.2.11-.42.11-.65V40.53c0-1.46-.52-2.84-1.47-3.88zm-99.7 33.19H10c-.41 0-.75-.36-.75-.8v-1.9h6.55a12.8 12.8 0 00-.43 2.7zm18.77.7v.39l-.03.37v.02a8.6 8.6 0 01-2.23 5.1 7.43 7.43 0 01-5.48 2.45 7.43 7.43 0 01-5.48-2.45 8.57 8.57 0 01-2.22-4.97v-.02a8.95 8.95 0 011.28-5.6l.03-.04a8.48 8.48 0 01.52-.73l.08-.1.31-.36a7.34 7.34 0 0110.96 0l.3.36.1.11a8.65 8.65 0 01.46.64l.1.16a8.73 8.73 0 01.58 1.1l.02.04.12.32.02.06.12.32.01.04c.04.12.08.24.1.36l.04.11.06.25.03.16a8.98 8.98 0 01.1.58l.03.15.03.28v.08a9.08 9.08 0 01.04.82zm53.72-2.78l-.03.16a12.62 12.62 0 00-.23 1.68l-.02.24H37.44l-.02-.23a12.45 12.45 0 00-.1-1l-.04-.23a13 13 0 00-.09-.46l-.03-.16-.15-.62h51.01l-.15.62zm18.5 2.77l-.01.37v.03c-.1 2-.85 3.97-2.26 5.49a7.43 7.43 0 01-5.48 2.45 7.42 7.42 0 01-5.48-2.45 8.64 8.64 0 01-2.25-5.5v-.02l-.01-.37v-.03l.03-.78.01-.07.03-.3.02-.14a9.16 9.16 0 01.1-.59l.04-.15.07-.25.02-.1.11-.37.01-.03.12-.33.02-.06a8.44 8.44 0 01.57-1.21l.15-.25.1-.16a8.2 8.2 0 01.46-.63l.1-.12.3-.36a7.35 7.35 0 0111.27.36l.1.12a8.65 8.65 0 01.45.63l.1.17c.06.07.1.15.15.23.16.29.3.57.43.87l.02.03.13.33.02.04.11.35.01.02.11.37.03.08.06.27.04.15.04.22.03.15c0 .08.02.15.03.23l.02.14.04.3v.06c.02.26.04.52.04.78v.03zm3.91-.7h-.63l-.02-.22a13.55 13.55 0 00-.1-1l-.04-.23-.09-.46-.03-.16-.15-.62h3.9c-.18 1.52-1.38 2.7-2.84 2.7zm-2.67-6.26l-.05-.06-.1-.14a15.67 15.67 0 00-.55-.74l-.12-.14a11.82 11.82 0 00-.76-.82l-.07-.07-.36-.33-.02-.02a10.49 10.49 0 00-6.96-2.66c-2.56 0-5 .94-6.96 2.66l-.02.02-.36.33-.07.07a11.44 11.44 0 00-.76.82l-.11.14a11.45 11.45 0 00-.56.73l-.1.15-.05.06h-4.22V27.8h16.15c.48 0 .95.2 1.29.58l9.88 10.78c.33.37.52.86.52 1.38v23.04h-5.64z" fill="#A4341C"/><path d="M26.4 64.81c-2.9 0-5.28 2.56-5.28 5.7s2.38 5.7 5.29 5.7 5.28-2.56 5.28-5.7-2.37-5.7-5.28-5.7zm0 7.84c-1.08 0-1.97-.96-1.97-2.14 0-1.18.89-2.13 1.98-2.13 1.09 0 1.98.95 1.98 2.13s-.89 2.14-1.98 2.14zm72.22-7.84c-2.91 0-5.28 2.56-5.28 5.7s2.37 5.7 5.28 5.7c2.92 0 5.29-2.56 5.29-5.7s-2.37-5.7-5.29-5.7zm0 7.84c-1.09 0-1.98-.96-1.98-2.14 0-1.18.9-2.13 1.98-2.13 1.1 0 1.98.95 1.98 2.13s-.89 2.14-1.98 2.14zM22.96 18.91h-9.02c-.74 0-1.54.35-1.54 1.1v17.8c0 .72.9 1.1 1.8 1.1s1.8-.38 1.8-1.1v-7.48h4.15c.79 0 1-.92 1-1.4 0-.71-.31-1.47-1-1.47H16v-5.22h6.96c.68 0 1-.88 1-1.7 0-.6-.21-1.63-1-1.63zm17.42 17.76l-3.3-6.44.25-.1c1.37-.57 3-1.98 3-5.46 0-3.82-2.08-5.76-6.17-5.76h-5.38c-.66 0-1.02.56-1.02 1.08V37.8c0 .72.9 1.1 1.8 1.1s1.8-.38 1.8-1.1v-7h2.08l3.62 7.59c.28.56.75.68 1.1.68 1.09 0 2.32-1.08 2.32-2.03a.75.75 0 00-.1-.38zm-6.22-8.73h-2.8v-5.7h2.8c1.73 0 2.57.93 2.57 2.85 0 1.91-.84 2.85-2.57 2.85zm21.54 7.65h-7.19v-5.26h4.13c.78 0 1-.92 1-1.4 0-.71-.32-1.47-1-1.47H48.5v-5.22h7.2c.68 0 .99-.88.99-1.7 0-.6-.21-1.63-1-1.63h-9.25c-.74 0-1.54.35-1.54 1.1v17.8c0 .76.8 1.1 1.54 1.1h9.25c.79 0 1-1.03 1-1.63 0-.82-.31-1.7-1-1.7zm15.98 0H64.5v-5.26h4.13c.78 0 1-.92 1-1.4 0-.71-.32-1.47-1-1.47H64.5v-5.22h7.2c.68 0 .99-.88.99-1.7 0-.6-.21-1.63-1-1.63h-9.25c-.74 0-1.54.35-1.54 1.1v17.8c0 .76.8 1.1 1.54 1.1h9.25c.79 0 1-1.03 1-1.63 0-.82-.31-1.7-1-1.7z" fill="#A4341C"/></svg>