<svg width="32" height="31" viewBox="0 0 32 31" fill="none" xmlns="http://www.w3.org/2000/svg">
<path d="M30.1614 0.0151368H1.80385C0.832851 0.0157032 0.0457039 0.780077 0.0458985 1.72289V29.2464C0.0464821 30.1888 0.834019 30.9528 1.8054 30.9526H17.0729V18.9885H12.9329V14.3056H17.0729V10.8593C17.0729 6.86278 19.5867 4.68748 23.2597 4.68748C25.0191 4.68748 26.5309 4.81475 26.9716 4.87159V9.04865H24.4387C22.4403 9.04865 22.0533 9.97031 22.0533 11.3231V14.3056H26.8315L26.2089 18.9885H22.0533V30.9526H30.1614C31.133 30.9528 31.9207 30.1886 31.9209 29.2456C31.9209 29.2454 31.9209 29.2453 31.9209 29.2449V1.72138C31.9205 0.778944 31.1328 0.0149479 30.1614 0.0151368Z" fill="#A4341C"/>
</svg>
