<svg width="98" height="98" fill="none" xmlns="http://www.w3.org/2000/svg"><g clip-path="url(#clip0)"><path d="M78.48 54.7H67.35c10.39-11.31 10.9-27.14 10.6-33.76a2.85 2.85 0 00-1.83-2.54 2.95 2.95 0 00-3.16.64L62.67 29.27a1.45 1.45 0 00-.01 2.03c.55.56 1.45.57 2 .01l10.3-10.22c.01-.02.03-.04.07-.03l.08.02c.3 6.65-.25 23.08-11.8 33.63h-7.24l.36-.8c2.8-2.84 8.04-8.66 11.51-15.44.36-.7.1-1.57-.6-1.93a1.42 1.42 0 00-1.92.61 56.56 56.56 0 01-6.56 9.76 41.14 41.14 0 001.24-9.98c0-13.04-6.2-28.99-8.87-35.24A2.78 2.78 0 0048.66 0c-1.12 0-2.13.66-2.57 1.69-2.67 6.25-8.87 22.2-8.87 35.23 0 3.36.42 6.72 1.24 10a56.57 56.57 0 01-6.56-9.77 1.42 1.42 0 00-1.91-.61c-.7.36-.97 1.23-.61 1.93 3.47 6.78 8.72 12.6 11.51 15.44l.36.8h-7.23C22.47 44.17 21.9 27.73 22.22 21.08a.17.17 0 01.08-.02c.03 0 .05.01.07.03l10.3 10.24c.56.55 1.46.55 2.01-.02.55-.56.54-1.47-.02-2.03l-10.3-10.24a2.95 2.95 0 00-3.16-.64 2.85 2.85 0 00-1.83 2.54c-.3 6.62.21 22.45 10.6 33.77H18.84a5.52 5.52 0 00-5.49 5.54 5.52 5.52 0 005.5 5.54h1.08l6.37 27.56A5.95 5.95 0 0032.1 98h33.12a5.95 5.95 0 005.8-4.65l6.37-27.56h1.1a5.52 5.52 0 005.48-5.54 5.52 5.52 0 00-5.49-5.54zM48.66 2.93c2.62 6.16 8.6 21.57 8.6 34a38.9 38.9 0 01-4.37 17.79h-2.8V26.79a1.43 1.43 0 10-2.84 0v27.92h-2.82a38.9 38.9 0 01-4.37-17.79c0-12.43 5.98-27.84 8.6-34zm29.82 60H33.96c-.78 0-1.42.64-1.42 1.43 0 .8.64 1.44 1.42 1.44h40.51l-6.21 26.9a3.11 3.11 0 01-3.04 2.44H32.1c-1.45 0-2.7-1-3.03-2.43l-6.22-26.91h4.47c.78 0 1.42-.64 1.42-1.44 0-.79-.64-1.43-1.42-1.43h-8.48a2.66 2.66 0 01-2.64-2.67 2.66 2.66 0 012.64-2.67h59.64c1.46 0 2.64 1.2 2.64 2.67a2.66 2.66 0 01-2.64 2.67z" fill="#A4341C"/></g><defs><clipPath id="clip0"><path fill="#fff" transform="translate(.12)" d="M0 0h97.09v98H0z"/></clipPath></defs></svg>