<svg width="38" height="27" viewBox="0 0 38 27" fill="none" xmlns="http://www.w3.org/2000/svg">
<path d="M36.9578 4.62711C36.5256 3.02058 35.259 1.75418 33.6527 1.32159C30.7182 0.518677 18.98 0.518677 18.98 0.518677C18.98 0.518677 7.24226 0.518677 4.30777 1.29115C2.73238 1.72328 1.43484 3.02081 1.00272 4.62711C0.230469 7.56137 0.230469 13.6467 0.230469 13.6467C0.230469 13.6467 0.230469 19.7626 1.00272 22.6662C1.4353 24.2725 2.70148 25.5389 4.308 25.9715C7.27316 26.7746 18.9805 26.7746 18.9805 26.7746C18.9805 26.7746 30.7182 26.7746 33.6527 26.0021C35.2592 25.5698 36.5256 24.3034 36.9582 22.6971C37.7302 19.7626 37.7302 13.6776 37.7302 13.6776C37.7302 13.6776 37.7611 7.56137 36.9578 4.62711ZM15.2428 19.2684V8.02486L25.0037 13.6467L15.2428 19.2684Z" fill="#A4341C"/>
</svg>
