<svg width="98" height="98" fill="none" xmlns="http://www.w3.org/2000/svg"><path d="M93.86 53.07l-2.07-3.33a2.33 2.33 0 010-2.48l2.07-3.33a4.98 4.98 0 00-1.16-6.56l-3.09-2.43a2.33 2.33 0 01-.84-2.32l.8-3.85c.53-2.5-.9-4.97-3.33-5.77l-3.73-1.22c-.86-.28-1.47-1-1.6-1.9L80.36 16a5 5 0 00-5.11-4.28l-3.93.13c-.9.03-1.72-.45-2.15-1.24l-1.85-3.47a4.99 4.99 0 00-6.26-2.27L57.4 6.33c-.84.33-1.77.17-2.44-.43l-2.93-2.62a5 5 0 00-6.67 0L42.45 5.9c-.67.6-1.6.76-2.44.43l-3.65-1.46a4.99 4.99 0 00-6.27 2.27l-1.85 3.47a2.33 2.33 0 01-2.15 1.24l-3.92-.13A4.99 4.99 0 0017.06 16l-.56 3.89c-.12.89-.73 1.61-1.59 1.9L11.18 23a4.98 4.98 0 00-3.34 5.77l.81 3.85c.19.88-.14 1.77-.85 2.32l-3.09 2.43a4.98 4.98 0 00-1.16 6.56l2.08 3.33c.47.77.47 1.71 0 2.48l-2.08 3.33a4.98 4.98 0 001.16 6.56l3.1 2.43c.7.55 1.03 1.44.84 2.32l-.8 3.85c-.53 2.5.9 4.97 3.33 5.77l3.73 1.22c.86.28 1.47 1 1.6 1.9l.55 3.88a5 5 0 005.1 4.28l3.93-.13c.9-.02 1.73.45 2.15 1.24l1.85 3.47a4.99 4.99 0 006.27 2.28l3.65-1.47a2.33 2.33 0 012.44.43l2.92 2.62a4.99 4.99 0 006.67 0l2.93-2.62c.67-.6 1.6-.76 2.44-.43l3.64 1.46a4.99 4.99 0 006.27-2.27l1.85-3.47a2.33 2.33 0 012.15-1.24l3.93.13a4.99 4.99 0 005.1-4.28l.56-3.89c.13-.89.74-1.61 1.6-1.9L86.24 74a4.98 4.98 0 003.33-5.77l-.8-3.85c-.19-.88.13-1.77.84-2.32l3.1-2.43a4.98 4.98 0 001.15-6.56zm-2.79 4.48l-3.1 2.42a4.96 4.96 0 00-1.8 4.96l.81 3.84a2.34 2.34 0 01-1.56 2.71l-3.74 1.22a4.96 4.96 0 00-3.39 4.04l-.55 3.89a2.34 2.34 0 01-2.4 2l-3.93-.12a4.96 4.96 0 00-4.57 2.64l-1.85 3.46a2.34 2.34 0 01-2.95 1.07l-3.64-1.46a4.97 4.97 0 00-5.2.91l-2.93 2.62c-.89.8-2.24.8-3.13 0l-2.92-2.62a4.97 4.97 0 00-5.2-.91l-3.65 1.46a2.34 2.34 0 01-2.94-1.07l-1.85-3.46A4.97 4.97 0 0026 82.5l-3.93.13a2.34 2.34 0 01-2.4-2.01l-.55-3.89a4.96 4.96 0 00-3.4-4.04L12 71.48a2.34 2.34 0 01-1.57-2.7l.81-3.85c.4-1.87-.3-3.77-1.8-4.95l-3.1-2.43a2.34 2.34 0 01-.54-3.08l2.08-3.33a4.96 4.96 0 000-5.28L5.8 42.53a2.34 2.34 0 01.55-3.08l3.09-2.42a4.96 4.96 0 001.8-4.96l-.8-3.84A2.34 2.34 0 0112 25.52l3.73-1.22a4.96 4.96 0 003.4-4.04l.55-3.89a2.34 2.34 0 012.4-2l3.93.12a4.97 4.97 0 004.57-2.64l1.85-3.46a2.34 2.34 0 012.94-1.07l3.65 1.46c1.78.72 3.77.37 5.2-.91l2.92-2.62c.9-.8 2.24-.8 3.13 0l2.93 2.62a4.97 4.97 0 005.2.91l3.64-1.46A2.34 2.34 0 0165 8.4l1.85 3.46a4.97 4.97 0 004.57 2.64l3.93-.13c1.2-.04 2.23.83 2.4 2.01l.55 3.89a4.96 4.96 0 003.4 4.04l3.73 1.22a2.34 2.34 0 011.56 2.71l-.8 3.84c-.4 1.87.29 3.77 1.8 4.96l3.09 2.42c.94.74 1.18 2.06.54 3.08l-2.07 3.33a4.96 4.96 0 000 5.28l2.07 3.33c.64 1.02.4 2.34-.54 3.08z" fill="#A4341C"/><path d="M82.6 51.8c-.73-.1-1.4.42-1.5 1.14a32.68 32.68 0 01-54 20.1 32.63 32.63 0 01-10.8-20.1 1.32 1.32 0 00-2.62.36 35.33 35.33 0 0058.37 21.72A35.27 35.27 0 0083.73 53.3c.1-.73-.4-1.4-1.13-1.5zM83.73 43.67a35.33 35.33 0 00-58.36-21.7 35.28 35.28 0 00-11.68 21.7 1.32 1.32 0 002.62.37 32.68 32.68 0 0153.98-20.08A32.63 32.63 0 0181.1 44.01a1.32 1.32 0 002.63-.35z" fill="#A4341C"/><path d="M59.66 46.85c-4.04 0-7.1 1.73-7.1 6.46v7.77c0 4.72 3.06 6.45 7.1 6.45 4 0 7.1-1.73 7.1-6.45V53.3c0-4.73-3.1-6.46-7.1-6.46zm3.31 14.23c0 2.15-1.26 3.1-3.3 3.1-2.06 0-3.27-.95-3.27-3.1V53.3c0-2.16 1.21-3.1 3.26-3.1s3.31.94 3.31 3.1v7.77zM36.44 29c-4.05 0-7.1 1.73-7.1 6.46v7.77c0 4.72 3.05 6.45 7.1 6.45 3.99 0 7.09-1.73 7.09-6.45v-7.77c0-4.73-3.1-6.46-7.1-6.46zm3.3 14.23c0 2.15-1.26 3.1-3.3 3.1-2.05 0-3.26-.95-3.26-3.1v-7.77c0-2.16 1.2-3.1 3.26-3.1 2.04 0 3.3.94 3.3 3.1v7.77zM57.61 26.95c-.63 0-1.26.26-1.57.95L36.75 66.48c-.16.27-.21.53-.21.8 0 .94.84 1.93 2.05 1.93.74 0 1.47-.36 1.79-1L59.66 29.8c.1-.27.16-.53.16-.84 0-1.21-1.16-2-2.2-2z" fill="#A4341C"/></svg>